<svg xmlns="http://www.w3.org/2000/svg" viewBox="0 0 262.35 262.35"><defs><style>.cls-1{fill:#fff;stroke:#495871;stroke-miterlimit:10;stroke-width:5px;}.cls-2{fill:#f43f5e;}.cls-3{fill:#495871;}</style></defs><g id="Layer_2" data-name="Layer 2"><g id="Layer_1-2" data-name="Layer 1"><rect id="BG" class="cls-1" x="2.5" y="2.5" width="257.35" height="257.35" rx="29.69"/><g id="Redirection-Romeo"><path class="cls-2" d="M129,170.28c8.08,7.41,15.28,15.79,24.13,22.35,10.44,7.74,19.72,7.33,29.5-1.24,9.18-8.06,14.56-18.41,17.78-30,.61-2.2-.13-3-2.18-3.41-4-.88-7.86-2-11.79-3-1.6-.4-2.66-.74-.75-2.33q17.47-14.53,34.89-29.13c1.1-.92,2.05-1.69,2.88.38,6,14.8,12,29.57,18.33,45.06-4.93-1.24-9.31-2.17-13.58-3.48-2.81-.86-3.89-.19-4.72,2.71-5.13,17.76-14.1,33.07-29.21,44.28-17,12.63-36.7,12.47-53.68-.36-9.56-7.22-17.7-16-26.42-24.12a44.24,44.24,0,0,0-14.22-9.44c-14.12-5.44-28.13,3.77-28.49,18.91-.23,9.9-.13,19.81,0,29.72,0,2.26-.5,3.15-3,3.08-5.73-.16-11.46-.09-17.19.06-2.19.05-2.84-.64-2.82-2.86.12-10,0-20.05.06-30.08.09-22,14.71-39.22,36.47-43,.7-.12,1.4-.3,2.09-.46,2,1.23,4.07-.3,6.11,0a51,51,0,0,1,24.4,7.85c2.09,1.31,3.79,3.21,6.19,4C125.4,167.36,126.69,169.38,129,170.28Z"/><path class="cls-3" d="M93.17,153.85c-2-.28-4.07,1.25-6.11,0,.61-2.42,1.1-4.88,1.85-7.26s.15-3.07-2.39-3.08c-7.35,0-13.06-3.12-16.79-9.64-1-1.7-1.25-2.68,1-3.72,3.26-1.52,4.17-4.82,3.17-9.3-1-4.28-3.44-8.58-2.26-12.89,1.67-6.08-1.12-10.45-3.91-15.11-1.47-2.45-2.87-5-4.11-7.52-2.42-5-.73-8.47,4.66-10,1.08-.3,2.46.07,3.33-1.45C65.06,72.06,58.47,70.49,52.34,67c1.94-1.8,4.65-2,7.21-4.85-9.88,1.61-17.89.35-23.53-7.49,1.37-1.32,3.55-.88,5-1.93C41,51.9,40.39,52.05,40,52c-3.1-.59-6.64.16-9.09-2.5A59.71,59.71,0,0,1,20.79,34c-.65-1.4.51-1.23,1.29-1.3,6.79-.63,13.57-1,20.33.24A8.86,8.86,0,0,1,48.81,37a33.26,33.26,0,0,0,2.45,3.16c.82-1.83-.53-3.13,0-4.7,8.61,1,14.39,5.42,16.85,14.87,1.45-2.83.2-4.7.88-6.73,4.69,2.75,8,7,12.31,10.38.89-2,1.62-3.91,2.52-5.7,3.31-6.54,7.84-8.85,15-7.19,9.66,2.24,18.29,6.85,26.4,12.39a92.6,92.6,0,0,1,22,21.33,22.52,22.52,0,0,0,7.74,6.71c5.48,2.89,10.85,6,16.27,9a22.23,22.23,0,0,1,2.15,1.29c2,1.43,3.13,3.29,2.47,5.83s-2.6,3.63-5.08,3.69c-4.65.11-9.31.23-14,.09-2.35-.07-2.95.8-2.6,2.94a16,16,0,0,0,1.41,4.78q2.47,4.75,4.91,9.53c3.19,6.19,2.34,8.6-4.15,10.71-1.83.59-2.43,1.37-2.46,3.22-.07,3.81-.32,7.63-.61,11.43-.73,9.38-5.11,13.18-14.49,12.68-6.34-.34-6.33-.34-7.88,5.95-.62,2.55-1.31,5.08-2,7.61-2.27-.9-3.56-2.92-5.2-4.54.7-2.65,1.23-5.36,2.15-7.93.85-2.39.13-3.19-2.2-3.92a22.27,22.27,0,0,1-13.2-10.31c-.93-1.64-1.38-3.48.59-4.73s3.39-.29,4.41,1.5a17.54,17.54,0,0,0,4.79,5.25c5.19,3.92,11.39,4.69,17.55,5.32,7.23.73,9.41-1.48,9.64-8.75.06-2.06-.61-2.68-2.53-2.86a16.59,16.59,0,0,1-6.82-2,2.76,2.76,0,0,1-1.3-3.68c.58-1.45,1.88-1.74,3.29-1.36,1.61.43,3.2.94,4.81,1.39,2.2.62,3.42.09,3.16-2.51-.36-3.73,1-6.25,5-6.84,2.8-.42,3.27-1.88,1.7-4.16a14.21,14.21,0,0,1-1-1.91c-2.38-5-5.92-9.57-5.72-15.56.06-1.74-1.47-1.2-2.42-1.2-6.91,0-13.83,0-20.75,0-2,0-2.82.57-3.33,2.65a16.45,16.45,0,0,1-9.44,11.44c-3.87,1.81-4.27,1.63-5.43-2.3-.93-3.13-2.72-5.44-6.17-5.56-3-.1-5,1.72-6.35,4.4-2.39,4.69,1.42,15.11,7.69,15.12,2.42,0,2.29,1.11,1.91,2.89a15.41,15.41,0,0,1-6.2,9.29c-1.1.83-2.41,1.5-2.39,3.28C95.31,146.53,94,150.14,93.17,153.85Zm54.08-68.6a72.69,72.69,0,0,0-7.95-10.91,86,86,0,0,0-38.86-26.91c-5.22-1.79-8.1-1.23-10.09,1.58-3.57,5-4.23,11-1.7,14.7,1.68,2.45,3.32,4.94,4.84,7.5a4.84,4.84,0,0,0,3.92,2.61,135,135,0,0,1,15.82,2.55c9.79,2.47,19.45,5.44,29.18,8.16C143.91,85,145.26,86.43,147.25,85.25ZM158.2,95.9c-3.26-2.33-6.91-2.65-10.39-3.58-16.38-4.38-32.25-10.81-49.3-12.54a100.86,100.86,0,0,0-26.31.91c-2.87.46-3,1.92-2,4,1.3,2.67,3,5.18,4.12,7.9S77.25,96,80.14,96c24.67-.13,49.35-.1,74-.11Zm-68.37-23a128.85,128.85,0,0,0-45.3-28.3,2.28,2.28,0,0,0,1.52,2c12,7.08,24,14.32,34.22,23.9C82.92,73,85.46,73.93,89.83,72.91Z"/><path class="cls-2" d="M147.25,85.25c-2,1.18-3.34-.3-4.84-.72-9.73-2.72-19.39-5.69-29.18-8.16a135,135,0,0,0-15.82-2.55,4.84,4.84,0,0,1-3.92-2.61c-1.52-2.56-3.16-5-4.84-7.5C86.12,60,86.78,54.05,90.35,49c2-2.81,4.87-3.37,10.09-1.58A86,86,0,0,1,139.3,74.34,72.69,72.69,0,0,1,147.25,85.25Z"/><path class="cls-2" d="M158.2,95.9h-4c-24.67,0-49.35,0-74,.11-2.89,0-4.63-.75-5.79-3.46s-2.82-5.23-4.12-7.9c-1-2-.9-3.5,2-4a100.86,100.86,0,0,1,26.31-.91c17,1.73,32.92,8.16,49.3,12.54C151.29,93.25,154.94,93.57,158.2,95.9Z"/><path class="cls-3" d="M133.64,111.59c.19-2.64,1.52-4.3,4.24-4.26a4,4,0,0,1,4.2,4c.11,2.59-1.39,4.41-4.05,4.46S133.88,114.28,133.64,111.59Z"/></g></g></g></svg>
